<svg xmlns="http://www.w3.org/2000/svg" viewBox="0 0 512 512">
  <defs>
    <linearGradient id="bg" x1="0%" x2="100%" y1="0%" y2="100%">
      <stop offset="0%" stop-color="#1a0b3d"/>
      <stop offset="100%" stop-color="#4b1da0"/>
    </linearGradient>
    <linearGradient id="coin" x1="0%" x2="100%" y1="0%" y2="100%">
      <stop offset="0%" stop-color="#f6c453"/>
      <stop offset="100%" stop-color="#d59a22"/>
    </linearGradient>
  </defs>
  <rect width="512" height="512" rx="96" fill="url(#bg)"/>
  <circle cx="256" cy="256" r="150" fill="none" stroke="url(#coin)" stroke-width="28"/>
  <path d="M220 176h56c43 0 68 21 68 56 0 22-11 39-31 48 28 8 44 28 44 57 0 43-31 67-83 67h-54V176zm48 92h8c16 0 24-7 24-20 0-13-8-20-24-20h-8v40zm0 84h12c19 0 29-9 29-24 0-16-10-24-29-24h-12v48z" fill="#f6f0ff"/>
  <path d="M170 152l26 26m120 156l26 26m0-208l-26 26m-120 156l-26 26" stroke="#f6c453" stroke-width="14" stroke-linecap="round"/>
</svg>
